<svg width="12" height="10" viewBox="0 0 12 10" fill="none" xmlns="http://www.w3.org/2000/svg">
<path d="M0.666748 4.81738C0.666748 4.56425 0.854851 4.35506 1.0989 4.32195L1.16675 4.31738L11.1667 4.31738C11.4429 4.31738 11.6667 4.54124 11.6667 4.81738C11.6667 5.07051 11.4786 5.27971 11.2346 5.31282L11.1667 5.31738L1.16675 5.31738C0.890606 5.31738 0.666748 5.09353 0.666748 4.81738Z" fill="#3D3D3D"/>
<path d="M6.78075 1.15563C6.58507 0.96079 6.58439 0.644208 6.77923 0.448526C6.95636 0.270633 7.2341 0.253898 7.43015 0.398713L7.48634 0.447003L11.5197 4.463C11.6981 4.64066 11.7143 4.9194 11.5684 5.11545L11.5197 5.1716L7.48637 9.18827C7.2907 9.38313 6.97412 9.38247 6.77926 9.18681C6.60212 9.00893 6.58655 8.73112 6.7322 8.53568L6.78072 8.4797L10.4581 4.81712L6.78075 1.15563Z" fill="#3D3D3D"/>
</svg>
