<svg width="13" height="383" viewBox="0 0 13 383" fill="none" xmlns="http://www.w3.org/2000/svg">
<path fill-rule="evenodd" clip-rule="evenodd" d="M2.404 0.882446L0 7.32779L3.40933 16.4691L0 25.6091L3.40933 34.7504L0 43.8904L3.40933 53.0318L0 62.1731L3.40933 71.3145L0 80.4544L3.40933 89.5944L0 98.7371L3.40933 107.878L0 117.018L3.40933 126.161L0 135.301L3.40933 144.441L0 153.582L3.40933 162.724L0 171.864L3.40933 181.005L0 190.146L3.40933 199.286L0 208.428L3.40933 217.569L0 226.709L3.40933 235.852L0 244.992L3.40933 254.133L0 263.274L3.40933 272.414L0 281.556L3.40933 290.697L0 299.838L3.40933 308.978L0 318.12L3.40933 327.261L0 336.401L3.40933 345.542L0 354.682L3.40933 363.824L0 372.965L3.40933 382.106H12.0787V0.882446H2.404Z" fill="#8CCA4C"/>
</svg>
