<svg width="335" height="167" viewBox="0 0 335 167" fill="none" xmlns="http://www.w3.org/2000/svg">
<path d="M145.904 126.811C139.843 127.46 134.596 129.676 129.823 132.479C117.41 138.46 105.334 145.322 91.7417 149.399C84.443 151.59 75.8683 153.152 68.0897 151.627C58.283 149.704 54.2083 142.942 56.6723 135.706C56.8363 135.392 57.0137 135.082 57.211 134.774C57.8163 133.824 56.391 132.972 55.4763 133.398C55.2057 133.372 54.9177 133.428 54.663 133.616C51.3243 136.067 47.6203 138.822 42.9363 139.5C36.9417 140.367 31.5163 137.451 27.599 134.232C21.5843 129.29 18.059 122.619 17.4697 115.848C16.9323 109.696 18.5563 100.427 26.4323 97.3097C31.2763 95.391 37.5563 96.1817 40.967 99.5817C43.2403 101.848 44.4963 105.63 41.4043 108.04C38.9763 109.932 35.2003 109.912 32.7083 108.335C31.4417 106.831 31.239 104.799 32.5763 103.172C33.4363 102.123 31.3163 101.175 30.4443 102.2C24.9603 108.654 35.819 115.062 43.3657 110.906C53.1483 105.519 47.023 94.3737 36.207 93.5471C23.775 92.5991 13.0043 100.934 9.67366 109.638C5.96966 119.323 11.1337 129.804 20.7603 136.262C29.5017 142.124 44.163 145.039 52.9923 139.042C51.791 146.152 56.4137 153.552 65.4657 156.403C79.9683 160.971 98.323 154.255 110.211 147.91C117.68 143.922 125.115 137.09 133.524 132.671C137.643 131.28 141.842 130.579 146.268 130.386C152.966 131.019 159.33 133.111 161.618 138.576C163.202 142.358 161.818 147.688 158.048 150.44C155.594 152.23 151.544 153.227 148.451 151.738C142.803 149.02 147.387 142.203 152.875 145.367C153.655 145.819 154.6 145.068 154.414 144.454C154.724 144.276 154.867 143.915 154.543 143.594C154.039 143.094 153.331 142.759 152.552 142.551C151.555 141.407 148.066 141.667 146.455 142.347C141.804 144.312 139.767 148.867 142.122 152.595C144.76 156.771 150.958 158.075 156.23 156.183C162.407 153.967 166.26 148.839 167.354 143.764C169.644 133.151 159.395 125.368 145.904 126.811Z" fill="#8CCA4C"/>
<path d="M132.845 144.876C132.717 145.98 131.747 146.584 130.681 146.693C128.677 145.47 127.663 144.257 127.609 143.052C127.865 142.91 128.119 142.766 128.384 142.633C129.203 142.47 129.98 142.312 130.909 142.565C132.193 142.914 132.969 143.814 132.845 144.876ZM146.781 133.153C139.245 132.246 130.957 135.062 126.981 140.192C126.449 140.88 125.943 141.684 125.584 142.529C120.611 144.766 117.525 149.942 113.723 152.937C105.168 159.676 91.3146 165.674 79.0306 165.373C78.4533 165.357 78.312 166.076 78.892 166.169C89.5626 167.878 99.8533 162.434 108.257 157.976C115.084 154.353 119.12 148.689 125.081 144.601C125.035 145.686 125.385 146.737 126.396 147.601C128.033 148.998 130.46 149.097 132.221 147.909C132.313 147.846 132.359 147.778 132.389 147.708C133.392 147.3 134.157 146.545 134.475 145.636C135.009 144.097 134.257 142.438 132.509 141.584C131.427 141.056 129.763 140.804 128.392 141.074C128.44 141.016 128.484 140.958 128.537 140.901C129.027 140.378 129.517 139.854 130.007 139.332C131.119 138.314 132.501 137.389 133.944 136.68C136.908 135.22 140.336 134.397 143.843 134.325C147.867 134.241 152.129 135.326 155.037 137.557C156.684 138.818 157.821 140.396 158.112 142.184C158.388 143.148 158.308 144.108 157.875 145.064C156.823 148.248 154.033 148.962 149.505 147.205C149.409 146.936 148.805 146.977 148.853 147.274C149.637 152.225 157.519 148.713 158.988 145.838C162.223 139.517 154.173 134.045 146.781 133.153Z" fill="#8CCA4C"/>
<path d="M32.0827 143.625C17.5547 141.608 6.25608 134.89 2.56275 123.364C-1.17725 111.688 3.06408 97.7437 19.3947 94.065C19.6494 94.009 19.6121 93.6784 19.3307 93.693C2.70674 94.605 -1.67992 110.506 0.53208 120.972C3.09208 133.078 15.5027 143.948 31.9561 144.353C32.4827 144.368 32.6201 143.698 32.0827 143.625Z" fill="#8CCA4C"/>
<path d="M167.355 143.764C168.448 148.839 172.302 153.968 178.48 156.184C183.754 158.075 189.95 156.771 192.588 152.593C194.942 148.868 192.906 144.312 188.254 142.347C186.646 141.668 183.155 141.408 182.156 142.552C181.378 142.759 180.668 143.095 180.166 143.595C179.842 143.915 179.984 144.277 180.296 144.453C180.11 145.068 181.054 145.819 181.836 145.368C187.322 142.204 191.906 149.02 186.259 151.737C183.164 153.227 179.114 152.231 176.662 150.44C172.89 147.688 171.507 142.357 173.091 138.576C175.38 133.111 181.743 131.02 188.442 130.385C192.868 130.58 197.066 131.281 201.184 132.672C209.595 137.089 217.028 143.923 224.499 147.909C236.386 154.256 254.743 160.969 269.243 156.404C278.294 153.553 282.919 146.152 281.716 139.041C290.547 145.039 305.208 142.124 313.948 136.261C323.576 129.805 328.74 119.324 325.035 109.639C321.706 100.933 310.935 92.5988 298.503 93.5468C287.687 94.3735 281.562 105.519 291.343 110.905C298.891 115.061 309.75 108.653 304.266 102.2C303.392 101.175 301.272 102.123 302.135 103.173C303.47 104.799 303.268 106.831 302.003 108.335C299.508 109.913 295.732 109.933 293.304 108.041C290.212 105.631 291.47 101.848 293.742 99.5815C297.152 96.1815 303.432 95.3908 308.276 97.3095C316.154 100.427 317.776 109.697 317.24 115.848C316.648 122.619 313.124 129.291 307.11 134.232C303.192 137.449 297.767 140.368 291.772 139.5C287.088 138.823 283.384 136.067 280.047 133.616C279.791 133.429 279.504 133.372 279.232 133.397C278.318 132.972 276.892 133.824 277.499 134.772C277.695 135.081 277.872 135.393 278.039 135.707C280.5 142.941 276.426 149.705 266.62 151.628C258.842 153.153 250.268 151.591 242.966 149.4C229.375 145.321 217.3 138.461 204.886 132.48C200.112 129.676 194.867 127.459 188.804 126.811C175.314 125.368 165.064 133.152 167.355 143.764Z" fill="#8CCA4C"/>
<path d="M203.799 142.565C204.731 142.311 205.505 142.471 206.325 142.633C206.591 142.767 206.844 142.911 207.101 143.053C207.047 144.257 206.032 145.471 204.028 146.694C202.961 146.583 201.992 145.979 201.864 144.875C201.739 143.814 202.516 142.915 203.799 142.565ZM175.721 145.838C177.189 148.713 185.072 152.226 185.857 147.275C185.904 146.978 185.3 146.935 185.204 147.206C180.677 148.963 177.885 148.249 176.836 145.063C176.4 144.109 176.321 143.147 176.599 142.183C176.888 140.397 178.025 138.818 179.671 137.558C182.579 135.329 186.843 134.242 190.867 134.325C194.373 134.398 197.801 135.219 200.765 136.679C202.207 137.389 203.591 138.314 204.703 139.333C205.193 139.855 205.681 140.379 206.171 140.901C206.224 140.959 206.268 141.015 206.317 141.074C204.947 140.805 203.283 141.057 202.2 141.583C200.453 142.438 199.699 144.097 200.235 145.635C200.551 146.546 201.319 147.299 202.32 147.709C202.349 147.779 202.396 147.847 202.488 147.91C204.249 149.098 206.675 148.998 208.315 147.601C209.324 146.739 209.673 145.686 209.629 144.602C215.589 148.691 219.625 154.354 226.452 157.977C234.856 162.435 245.147 167.879 255.816 166.17C256.399 166.077 256.255 165.358 255.677 165.373C243.393 165.674 229.54 159.675 220.985 152.937C217.183 149.945 214.097 144.767 209.125 142.529C208.767 141.685 208.26 140.879 207.728 140.193C203.752 135.063 195.463 132.246 187.928 133.154C180.536 134.047 172.488 139.518 175.721 145.838Z" fill="#8CCA4C"/>
<path d="M302.625 143.625C317.153 141.608 328.453 134.89 332.148 123.364C335.888 111.688 331.644 97.7437 315.316 94.065C315.06 94.009 315.098 93.6784 315.38 93.693C332.002 94.605 336.39 110.506 334.178 120.972C331.618 133.078 319.206 143.948 302.752 144.353C302.226 144.368 302.089 143.698 302.625 143.625Z" fill="#8CCA4C"/>
<path d="M167.355 23.6088C166.261 18.5354 162.407 13.4061 156.23 11.1888C150.957 9.29811 144.759 10.6021 142.121 14.7794C139.769 18.5048 141.803 23.0621 146.457 25.0261C148.065 25.7048 151.555 25.9648 152.553 24.8221C153.331 24.6141 154.039 24.2794 154.543 23.7794C154.867 23.4594 154.726 23.0968 154.414 22.9194C154.601 22.3048 153.657 21.5554 152.874 22.0048C147.387 25.1701 142.803 18.3528 148.45 15.6354C151.546 14.1461 155.595 15.1434 158.049 16.9341C161.819 19.6848 163.202 25.0154 161.618 28.7981C159.329 34.2621 152.966 36.3528 146.269 36.9888C141.842 36.7941 137.643 36.0914 133.526 34.7008C125.115 30.2848 117.682 23.4514 110.211 19.4634C98.3247 13.1181 79.9673 6.40345 65.466 10.9701C56.4167 13.8208 51.7913 21.2208 52.9927 28.3328C44.1633 22.3341 29.502 25.2501 20.7607 31.1101C11.134 37.5688 5.97001 48.0488 9.67534 57.7341C13.0033 66.4394 23.774 74.7754 36.206 73.8261C47.0247 72.9994 53.1487 61.8554 43.366 56.4674C35.8193 52.3114 24.9607 58.7194 30.4433 65.1728C31.3167 66.1981 33.4367 65.2501 32.5753 64.2008C31.2393 62.5741 31.4433 60.5421 32.7073 59.0381C35.202 57.4608 38.9767 57.4408 41.4047 59.3328C44.498 61.7421 43.242 65.5234 40.9687 67.7914C37.558 71.1914 31.2767 71.9808 26.4327 70.0634C18.5553 66.9474 16.9327 57.6768 17.47 51.5248C18.062 44.7554 21.5847 38.0821 27.5993 33.1408C31.5167 29.9234 36.9433 27.0061 42.9367 27.8728C47.6207 28.5514 51.3247 31.3061 54.662 33.7568C54.918 33.9448 55.2047 34.0008 55.4767 33.9754C56.3927 34.4021 57.8167 33.5501 57.2113 32.6008C57.0153 32.2914 56.838 31.9808 56.6727 31.6661C54.2087 24.4328 58.2847 17.6674 68.09 15.7461C75.8687 14.2208 84.442 15.7834 91.7433 17.9728C105.334 22.0528 117.41 28.9128 129.823 34.8954C134.597 37.6968 139.843 39.9141 145.905 40.5621C159.395 42.0048 169.645 34.2208 167.355 23.6088Z" fill="#8CCA4C"/>
<path d="M130.912 24.81C129.98 25.062 129.204 24.9033 128.384 24.742C128.118 24.606 127.866 24.4633 127.608 24.322C127.664 23.118 128.677 21.9033 130.682 20.6807C131.748 20.7927 132.718 21.3953 132.846 22.498C132.97 23.5593 132.194 24.4593 130.912 24.81ZM158.989 21.5353C157.52 18.662 149.637 15.1473 148.853 20.0993C148.805 20.398 149.41 20.438 149.506 20.1673C154.033 18.4113 156.824 19.1247 157.873 22.3113C158.31 23.266 158.389 24.226 158.112 25.19C157.822 26.978 156.685 28.5553 155.038 29.8167C152.13 32.046 147.868 33.1313 143.844 33.0487C140.337 32.9767 136.91 32.154 133.944 30.694C132.504 29.9847 131.118 29.0593 130.008 28.042C129.516 27.518 129.028 26.9953 128.538 26.4727C128.485 26.4153 128.441 26.358 128.393 26.3007C129.764 26.5687 131.428 26.318 132.509 25.79C134.257 24.9367 135.01 23.2767 134.474 21.738C134.158 20.8287 133.392 20.074 132.39 19.666C132.36 19.5967 132.314 19.526 132.221 19.4647C130.46 18.2753 128.034 18.3753 126.396 19.7727C125.385 20.6353 125.036 21.6873 125.081 22.7727C119.12 18.6833 115.085 13.0207 108.258 9.39801C99.8543 4.93934 89.5623 -0.504654 78.893 1.20468C78.3117 1.29668 78.4543 2.01534 79.0317 2.00201C91.3157 1.70068 105.169 7.69935 113.724 14.438C117.526 17.43 120.612 22.606 125.585 24.8447C125.944 25.69 126.45 26.4953 126.981 27.1807C130.957 32.3113 139.246 35.1287 146.781 34.2193C154.174 33.3287 162.222 27.8567 158.989 21.5353Z" fill="#8CCA4C"/>
<path d="M32.0827 23.7489C17.5547 25.7676 6.25608 32.4836 2.56275 44.0102C-1.17725 55.6849 3.06408 69.6302 19.3947 73.3076C19.6494 73.3649 19.6121 73.6956 19.3307 73.6809C2.70674 72.7702 -1.67992 56.8662 0.53208 46.4009C3.09208 34.2956 15.5027 23.4262 31.9561 23.0209C32.4827 23.0076 32.6201 23.6743 32.0827 23.7489Z" fill="#8CCA4C"/>
<path d="M188.805 40.5617C194.867 39.9124 200.113 37.6964 204.887 34.8937C217.301 28.9137 229.376 22.0538 242.967 17.9724C250.268 15.7831 258.841 14.2204 266.619 15.7444C276.427 17.6684 280.501 24.4324 278.039 31.6671C277.872 31.9791 277.695 32.2924 277.499 32.6004C276.892 33.5498 278.319 34.4017 279.232 33.9764C279.503 34.0004 279.792 33.9444 280.047 33.7578C283.385 31.3071 287.089 28.5524 291.773 27.8737C297.768 27.0057 303.192 29.9231 307.109 33.1418C313.125 38.0831 316.649 44.7551 317.24 51.5257C317.776 57.6764 316.153 66.9471 308.279 70.0631C303.433 71.9818 297.153 71.1911 293.743 67.7911C291.469 65.5244 290.212 61.7431 293.305 59.3324C295.733 57.4418 299.509 57.4604 302.001 59.0378C303.268 60.5431 303.471 62.5724 302.133 64.2004C301.275 65.2498 303.393 66.1978 304.265 65.1711C309.749 58.7191 298.892 52.3111 291.344 56.4684C281.561 61.8551 287.687 72.9991 298.503 73.8271C310.933 74.7764 321.705 66.4404 325.036 57.7351C328.739 48.0498 323.577 37.5684 313.948 31.1111C305.208 25.2498 290.547 22.3337 281.717 28.3324C282.919 21.2217 278.295 13.8204 269.243 10.9697C254.741 6.40308 236.387 13.1191 224.497 19.4644C217.028 23.4511 209.595 30.2844 201.184 34.7018C197.067 36.0924 192.868 36.7937 188.44 36.9884C181.744 36.3537 175.38 34.2618 173.091 28.7978C171.507 25.0151 172.892 19.6844 176.661 16.9337C179.115 15.1431 183.164 14.1471 186.259 15.6351C191.907 18.3524 187.324 25.1698 181.835 22.0057C181.053 21.5551 180.109 22.3057 180.296 22.9204C179.985 23.0964 179.843 23.4578 180.165 23.7791C180.669 24.2791 181.379 24.6151 182.157 24.8217C183.153 25.9671 186.644 25.7057 188.255 25.0257C192.904 23.0617 194.943 18.5058 192.588 14.7791C189.949 10.6017 183.752 9.29908 178.48 11.1898C172.303 13.4071 168.449 18.5351 167.355 23.6084C165.065 34.2231 175.315 42.0057 188.805 40.5617Z" fill="#8CCA4C"/>
<path d="M201.864 22.4971C201.992 21.3944 202.961 20.7917 204.028 20.6797C206.032 21.9037 207.047 23.1171 207.1 24.3211C206.844 24.4637 206.591 24.6064 206.327 24.7411C205.507 24.9037 204.729 25.0624 203.799 24.8091C202.516 24.4597 201.739 23.5584 201.864 22.4971ZM187.929 34.2197C195.464 35.1277 203.752 32.3117 207.727 27.1811C208.26 26.4944 208.767 25.6904 209.125 24.8437C214.099 22.6064 217.183 17.4304 220.985 14.4371C229.54 7.69973 243.395 1.69973 255.679 2.00106C256.256 2.01706 256.397 1.2984 255.817 1.20507C245.146 -0.504269 234.856 4.93973 226.452 9.3984C219.625 13.0211 215.589 18.6851 209.628 22.7731C209.673 21.6877 209.325 20.6357 208.313 19.7731C206.675 18.3757 204.249 18.2757 202.488 19.4651C202.396 19.5264 202.349 19.5957 202.32 19.6664C201.319 20.0744 200.552 20.8304 200.235 21.7371C199.7 23.2784 200.452 24.9357 202.2 25.7904C203.284 26.3184 204.947 26.5704 206.317 26.3011C206.268 26.3571 206.225 26.4144 206.171 26.4731C205.683 26.9957 205.192 27.5184 204.703 28.0411C203.591 29.0584 202.208 29.9851 200.765 30.6944C197.801 32.1544 194.373 32.9771 190.867 33.0491C186.843 33.1331 182.58 32.0464 179.671 29.8171C178.025 28.5557 176.888 26.9784 176.597 25.1904C176.321 24.2264 176.4 23.2664 176.836 22.3117C177.887 19.1264 180.677 18.4131 185.204 20.1677C185.3 20.4384 185.904 20.3971 185.857 20.0997C185.072 15.1477 177.191 18.6611 175.721 21.5357C172.487 27.8571 180.536 33.3291 187.929 34.2197Z" fill="#8CCA4C"/>
<path d="M302.625 23.7489C317.153 25.7676 328.453 32.4836 332.148 44.0102C335.888 55.6849 331.644 69.6302 315.316 73.3076C315.06 73.3649 315.098 73.6956 315.38 73.6809C332.002 72.7702 336.39 56.8662 334.178 46.4009C331.618 34.2956 319.206 23.4262 302.752 23.0209C302.226 23.0076 302.089 23.6743 302.625 23.7489Z" fill="#8CCA4C"/>
</svg>
