<svg width="310" height="215" viewBox="0 0 310 215" fill="none" xmlns="http://www.w3.org/2000/svg">
<path d="M368.837 -6.39324C368.841 -6.68852 368.302 -6.40006 367.759 -5.90494C367.002 -5.21761 367.696 -1.01716 370.166 7.19868C381.063 44.1544 378.24 71.8532 361.005 95.1807C352.912 106.099 342.542 115.14 332.091 120.498C329.015 122.079 325.928 123.337 322.892 124.229C319.125 125.378 317.406 125.459 316.348 124.644C315.499 123.938 313.03 123.708 310.243 124.068C306.052 124.513 297.598 123.511 291.613 121.834C290.438 121.422 291.29 122.031 293.633 123.156C295.871 124.182 301.111 125.444 305.285 125.903C310.424 126.366 313.313 127.2 314.152 128.31C315.316 129.819 315.959 129.827 322.84 128.318C352.948 121.421 374.924 96.4586 379.739 63.5895C382.082 47.855 378.972 23.0752 372.455 4.2313C370.489 -1.37731 368.835 -6.19246 368.837 -6.39324Z" fill="#96C361"/>
<path d="M341.213 100.118C339.246 102.989 332.745 108.191 324.964 112.98C321.615 115.131 322.027 116.138 326.007 115.287C331.818 113.965 348.977 96.8269 344.254 96.9656C343.72 97.0553 342.413 98.4345 341.213 100.118ZM290.313 89.1926C292.565 89.1229 292.675 89.0238 290.962 88.6024C289.792 88.2882 287.663 87.064 286.282 85.9518C284.902 84.7312 282.903 81.916 281.859 79.7035C280.814 77.3965 279.972 76.49 279.959 77.484C279.683 81.9714 286.238 89.3415 290.313 89.1926ZM280.537 65.6234C282.605 63.1533 282.611 62.6572 280.555 64.2238C279.686 64.9097 278.924 65.9001 278.916 66.4985C278.908 67.0989 279.663 66.7108 280.537 65.6234ZM290.3 56.766C291.267 56.3786 291.81 55.8875 291.492 55.6826C291.279 55.3806 290.095 55.6648 289.017 56.2476C286.859 57.4211 287.5 57.6262 290.3 56.766ZM354.255 35.7289C355.382 31.2563 355.9 24.6752 354.925 25.4641C354.378 26.0537 351.105 38.7818 351.082 40.577C351.053 42.8723 353.246 39.4095 354.255 35.7289ZM332.999 96.9187C346.509 88.3099 360.594 68.2361 366.087 49.8503C367.99 43.4877 368.585 38.8056 368.845 26.7341C368.95 18.4546 369.251 11.6759 369.357 11.8741C369.464 11.9779 370.47 17.1805 371.566 23.4809C374.077 36.9816 374.055 55.5394 371.566 65.6845C368.175 79.3088 362.907 88.9204 351.596 101.446C344.091 109.733 336.838 115.128 328.107 118.811C322.286 121.329 320.46 121.607 310.918 121.486C305.019 121.411 298.486 120.825 296.458 120.301C290.472 118.727 281.542 112.927 279.122 109.205C276.6 105.286 276.279 105.282 285.886 108.692C295.703 112.214 311.807 110.521 319.596 105.133C323.705 102.287 320.274 102.442 313.376 105.45C304.752 109.031 296.815 109.332 287.633 106.22C281.119 104.139 274.096 99.7633 272.099 96.639C271.258 95.3367 271.79 95.5423 274.448 97.4682C281.885 102.853 287.866 104.628 298.264 104.761C306.305 104.863 308.668 104.59 312.232 102.742C314.925 101.376 315.578 100.788 313.857 101.164C304.069 103.537 294.519 104.113 294.541 102.42C294.547 101.916 292.626 101.194 290.274 100.767C287.92 100.335 283.122 98.2777 279.612 96.0377C274.507 92.8816 272.601 90.9633 270.931 87.347C266.549 77.9157 270.467 64.8946 280.337 55.9421C287.172 49.7428 292.884 47.4175 301.459 47.5267C307.89 47.6087 308.319 47.8189 312.986 51.8672C319.344 57.5377 321.019 60.7465 320.825 67.8298C320.712 76.7117 317.656 80.8604 308.931 83.9388C305.271 85.1935 303.448 85.2687 300.347 84.4299C290.941 81.916 285.341 75.5602 286.924 69.1915C288.728 62.1327 300.783 58.6951 305.754 63.7494C308.509 66.5783 308.134 70.96 305.122 71.3213C301.904 71.5796 299.888 69.9572 299.822 66.7649C299.871 62.9736 295.694 62.625 295.212 66.4089C294.273 72.9786 306.884 76.4312 309.211 70.2787C310.766 66.1069 309.413 62.8943 305.054 60.045C299.098 56.2776 293.197 56.4032 288.318 60.6292C281.708 66.2368 281.485 75.4126 287.63 80.98C291.978 84.9218 296.567 86.3801 304.823 86.4853C317.903 86.6519 327.333 78.5857 338.208 58.2722C341.173 52.7244 344.827 43.7912 346.395 38.4225C350.55 23.7112 352.543 18.7477 353.597 20.3578C354.225 21.2636 354.557 20.5669 354.588 18.0748C354.642 13.8799 355.533 11.3023 356.928 11.32C358.535 11.3405 357.689 35.7726 355.757 44.0308C351.787 61.2389 343.666 75.9036 332.488 86.3435C329.344 89.2922 327.165 91.755 327.704 91.7618C329.632 91.7864 340.275 81.0482 345.083 74.2265C347.595 70.565 351.215 64.0273 353.095 59.7593C358.729 46.6656 360.111 38.9949 360.152 18.945C360.329 5.07693 360.711 0.39602 361.922 -1.78969C364 -5.35435 365.933 -5.42422 364.817 -1.84928C364.366 -0.260287 364.086 4.72317 364.349 9.41821C365.676 39.9636 363.578 53.2107 354.359 69.9542C350.293 77.4863 347.571 80.9423 339.651 88.2225C329.882 97.3751 327.482 100.542 332.999 96.9187Z" fill="#96C361"/>
<path d="M344.691 -12.8848C345.474 -15.3674 345.156 -15.7691 338.652 -18.8465C334.818 -20.5964 329.369 -22.2567 326.048 -22.6967C305.489 -24.8585 285.105 -6.95782 284.519 13.8884C284.31 21.9658 286.357 29.4714 288.62 28.7088C289.59 28.4219 290.148 26.6334 290.181 24.037C290.356 10.2713 300.947 -5.06084 314.428 -11.0712C319.825 -13.5993 322.294 -14.0679 328.403 -13.9901C332.907 -13.9327 336.972 -13.2785 338.892 -12.3543C343.584 -10.0048 342.707 -8.71453 337.691 -10.3752C319.005 -16.7992 296.065 -0.427408 295.272 19.8118C294.996 24.5964 295.299 25.9962 296.48 26.0112C297.448 26.0236 298.541 24.2439 299.326 21.4641C302.24 11.4189 309.317 3.03329 317.944 -0.648753C322.904 -2.78079 328.057 -3.51645 328.04 -2.12078C328.032 -1.52039 327.062 -1.03464 325.881 -1.04968C322.452 -1.09337 315.987 1.61605 312.623 4.56974C308.719 7.80793 303.675 16.8239 302.754 21.805C301.941 26.5809 303.122 26.5959 306.611 21.7518C313.16 12.757 324.606 6.51796 337.496 4.88662C344.583 3.87634 345.121 3.68434 344.395 1.78109C343.359 -0.921512 343.47 -9.60653 344.691 -12.8848Z" fill="#96C361"/>
<path d="M297.575 -26.1526C296.293 -26.3678 294.143 -25.9995 292.741 -25.3164C287.778 -22.9875 282.463 -18.3636 280.057 -14.5038C276.555 -8.85856 277.721 -7.74903 281.751 -12.9859C283.717 -15.4534 287.08 -18.5056 289.345 -19.7761C300.904 -26.4134 300.143 -25.7222 297.575 -26.1526ZM324.124 -31.2031C322.849 -32.2155 320.607 -33.0434 319.216 -33.0611C316.536 -33.0953 311.257 -31.2705 311.244 -30.2666C311.24 -29.9713 314.666 -29.6264 318.954 -29.4734C326.458 -29.2793 326.566 -29.3764 324.124 -31.2031ZM336.677 -23.5596C333.479 -24.9018 329.198 -25.4525 322.444 -25.5385C313.976 -25.6464 312.04 -25.3738 306.325 -22.8497C298.025 -19.1635 287.609 -9.71986 283.764 -2.48224C278.599 7.42401 277.553 22.1827 281.534 29.4098C283.214 32.2309 281.257 34.3027 278.491 32.6688C272.533 29.1022 270.093 10.1173 274.386 1.38513C277.029 -3.86551 277.138 -4.26379 274.761 -2.59694C272.053 -0.538594 268.964 6.2066 268.911 10.3975C268.805 18.677 265.432 14.2416 263.636 3.34694C261.346 -10.2513 270.473 -28.0966 284.091 -36.6036C290.144 -40.3184 300.152 -43.282 306.584 -43.2C317.303 -43.0635 339.153 -32.7107 339.089 -27.7186C339.075 -26.626 339.59 -24.8239 340.111 -23.7187C341.267 -21.804 341.157 -21.8054 336.677 -23.5596Z" fill="#96C361"/>
<path d="M336.57 43.7874C334.719 37.8771 324.082 30.9551 313.494 28.7273C303.12 26.6972 288.38 30.701 278.846 38.2639C272.891 43.0766 265.231 55.0479 268.236 55.0861C268.769 55.0929 270.294 53.2164 271.397 50.8383C274.151 45.1835 281.304 38.9902 288.743 35.6966C301.899 29.8751 319.557 32.3918 331.449 41.6274C336.44 45.4809 337.187 45.7917 336.57 43.7874Z" fill="#96C361"/>
<path d="M322.387 37.72C318.233 35.5703 315.982 35.2424 306.764 35.1249C297.653 35.0089 295.181 35.3751 290.869 37.2181C284.829 39.9309 278.756 45.2422 275.796 50.4947C272.289 56.4372 273.907 55.757 279.353 48.841C283.387 43.8069 285.664 41.9399 291.161 39.5155C296.876 36.9953 299.027 36.5207 305.887 36.6081C316.071 36.7378 324.72 39.6438 330.764 45.009C333.199 47.2333 335.432 48.9589 335.644 48.9616C338.11 48.993 328.356 40.5918 322.387 37.72Z" fill="#96C361"/>
<path d="M323.077 42.3144C314.235 38.0121 298.567 39.0095 290.991 44.4021C288.067 46.56 288.717 46.3695 296.903 43.0835C306.389 39.1092 323.615 42.4216 329.204 49.2794C330.475 50.6895 331.749 51.9047 332.067 51.9088C333.358 51.9252 332.738 50.1198 330.516 47.5005C329.246 45.9861 325.956 43.6505 323.077 42.3144Z" fill="#96C361"/>
<path d="M325.164 139.525C325.173 138.826 323.995 138.612 322.491 138.792C320.988 139.072 319.812 138.856 319.817 138.461C319.824 137.963 318.757 137.545 317.362 137.528C315.969 137.51 312.336 136.765 309.237 135.829C302.184 133.844 299.486 135.207 304.918 137.968C307.269 139.096 311.542 139.946 316.903 140.217C322.368 140.482 325.155 140.222 325.164 139.525Z" fill="#96C361"/>
<path d="M311.104 22.7105C311.982 21.127 314.915 18.1678 317.623 16.1075C323.252 11.8872 323.799 11.0968 319.584 13.5376C315.157 15.9757 307.348 22.8615 307.329 24.3576C307.299 26.6489 309.351 25.7773 311.104 22.7105Z" fill="#96C361"/>
<path d="M298.389 137.19C300.729 138.613 300.626 138.315 297.773 135.083C295.87 133.062 294.18 130.85 293.976 130.05C293.664 129.345 293.025 129.039 292.587 129.53C291.4 130.414 294.989 135.047 298.389 137.19Z" fill="#96C361"/>
<path d="M263.011 52.3268C265.1 48.5634 268.16 43.9147 269.794 42.0375C271.425 40.1623 272.73 38.5803 272.839 38.5817C273.062 37.8856 267.065 29.0322 265.154 27.3147L262.612 24.9827L261.236 31.9505C259.739 40.1139 256.751 47.4569 252.162 54.2834C248.335 59.9206 248.96 61.2319 254.98 60.1116C258.849 59.456 259.5 58.8658 263.011 52.3268Z" fill="#96C361"/>
<path d="M267.95 60.4697C269.444 61.0912 269.553 60.9941 268.598 59.9818C267.859 59.2774 267.003 58.9613 266.681 59.2624C266.352 59.5515 266.882 60.1568 267.95 60.4697Z" fill="#96C361"/>
<path d="M264.884 73.7034C264.924 70.6089 264.61 69.9079 263.846 70.9968C262.428 72.9731 262.348 79.2546 263.751 78.4751C264.398 78.1861 264.855 75.9986 264.884 73.7034Z" fill="#96C361"/>
<path d="M251.441 34.8178C251.488 31.1289 251.086 29.0211 250.438 29.4203C249.899 29.7108 249.326 32.4992 249.288 35.4893C249.25 38.4795 249.756 40.882 250.292 40.8888C250.935 40.897 251.398 38.2076 251.441 34.8178ZM242.111 51.7607C237.53 57.8904 236.758 59.6741 239.353 58.2109C241.724 56.9456 246.966 49.5289 246.992 47.5348C247.009 46.1352 245.488 47.5157 242.111 51.7607ZM228.353 62.9633C226.948 63.7408 223.718 64.8986 221.027 65.5594C215.866 66.793 213.057 68.3559 215.735 68.39C218.421 68.4243 227.458 65.8441 229.08 64.5673C231.681 62.604 230.945 61.3976 228.353 62.9633ZM255.277 36.7647C251.461 50.0863 239.483 64.501 227.947 69.6422C223.202 71.6747 221.052 71.9505 210.762 71.8194C195.967 71.6309 186.994 69.1205 175.72 61.8911C166.999 56.2929 161.601 50.6366 157.414 42.7021C154.171 36.3724 154.617 35.0806 158.081 41.0135C166.576 55.691 184.871 67.3944 202.853 69.8187C210.131 70.8131 209.29 69.7018 201.06 67.6006C194.326 65.9161 183.234 61.1934 179.836 58.5513C178.671 57.6406 181.126 58.4653 185.177 60.216C191.893 63.2942 193.605 63.6172 202.825 63.7347C212.259 63.8549 213.546 63.6704 221.093 60.3763C230.583 56.3056 238.929 49.1292 243.101 41.4981C248.48 31.5867 249.842 17.34 246.422 7.91496C245.284 4.90982 244.466 1.6036 244.37 0.608131C244.323 -3.88334 249.513 1.16979 253.372 9.49783C256.817 16.7299 257.634 28.5079 255.277 36.7647Z" fill="#96C361"/>
<path d="M238.198 22.4788C237.528 24.5651 237.848 24.7681 241.169 24.8104C243.099 24.835 245.141 24.5597 245.573 24.1695C245.903 23.7701 246.018 22.8797 245.71 22.0764C245.392 21.3735 245.198 20.0696 245.208 19.2743C245.222 18.1759 244.582 17.9669 242.861 18.3447C239.739 19.2046 239.197 19.6959 238.198 22.4788Z" fill="#96C361"/>
<path d="M242.292 37.5971C246.029 30.4546 245.825 29.8613 240.784 29.7971C236.926 29.7479 236.383 30.1367 234.411 33.4035C231.451 38.5575 224.078 45.0454 218.145 47.6651C210.706 50.9587 200.094 50.6305 191.784 46.6284C183.255 42.6293 172.664 32.3156 167.954 23.2778C165.968 19.4665 163.125 15.2386 161.75 13.8213L159.211 11.2925L159.899 16.2922C163.034 39.3752 180.38 57.9593 200.729 59.9157C216.898 61.5156 234.926 51.8677 242.292 37.5971Z" fill="#96C361"/>
<path d="M237.601 27.2601C237.582 28.7523 242.93 29.5193 244.341 28.1434C245.972 26.6678 244.907 25.8549 241.372 25.8099C238.798 25.7771 237.614 26.2641 237.601 27.2601Z" fill="#96C361"/>
<path d="M243.577 12.466C243.059 11.2623 242.523 11.161 240.37 12.0313C237.672 13.196 237.231 14.3815 238.698 16.6939C239.437 17.7034 240.079 17.812 241.913 16.9376C244.287 15.7708 244.62 14.9777 243.577 12.466Z" fill="#96C361"/>
<path d="M240.755 6.94212C239.583 6.13375 238.935 6.42476 237.841 8.30482C236.089 11.2751 236.824 12.2807 239.846 10.8229C242.434 9.66079 242.661 8.56508 240.755 6.94212Z" fill="#96C361"/>
<path d="M237.797 3.31681C236.63 2.20531 234.676 4.27524 234.648 6.47208C234.625 8.26341 235.808 8.07964 237.442 6.00563C238.312 4.91614 238.431 4.01989 237.797 3.31681Z" fill="#96C361"/>
<path d="M230.328 8.91111C233.385 13.0373 233.486 13.4343 232.345 19.0112C230.848 26.9738 228.218 31.5315 222.81 35.1522C211.779 42.696 194.994 38.7867 186.14 26.605C184.456 24.2899 182.78 21.1755 182.369 19.7704C182.065 18.2703 181.333 17.0639 180.796 17.0571C177.473 17.0147 183.861 28.9701 189.909 34.0341C201.579 43.8654 214.857 44.9304 224.609 36.9707C229.595 32.8426 232.339 27.9909 233.502 20.7172C234.428 15.3443 234.428 15.3443 234.017 22.4268C233.858 26.4116 233.816 29.7089 234.028 29.7116C234.139 29.713 234.801 28.2172 235.359 26.4307C237.704 19.2784 236.078 12.1719 230.795 5.82009C226.364 0.378929 225.901 2.86556 230.328 8.91111Z" fill="#96C361"/>
<path d="M234.935 0.784763C235.577 0.792933 235.904 0.596285 235.583 0.292934C235.266 -0.00839401 234.196 -0.0220278 233.225 0.365269C231.392 1.03691 230.823 3.72497 232.54 3.74685C233.182 3.75502 233.619 3.06167 233.63 2.26443C233.64 1.46522 234.186 0.775214 234.935 0.784763Z" fill="#96C361"/>
<path d="M230.897 -2.15891C230.581 -2.46614 229.93 -2.07082 229.387 -1.2784C228.842 -0.489945 228.614 0.4069 228.932 0.609803C229.253 0.911185 229.897 0.519722 230.446 -0.272617C230.992 -1.06107 231.218 -1.95598 230.897 -2.15891Z" fill="#96C361"/>
<path d="M193.515 20.0106C192.479 17.3041 189.278 16.0663 187.965 18.0479C187.202 19.1348 193.42 27.4949 196.819 30.0366C203.939 35.3092 212.921 36.9219 219.068 34.11C223.168 32.1659 227.839 27.4333 229.063 24.0566C230.845 18.6907 229.954 12.9933 226.587 8.06385L225.008 5.64768L220.14 8.97991C214.948 12.6053 206.005 15.9801 199.13 16.8927C194.943 17.4379 194.942 17.5363 196.409 20.2464C198.292 23.765 204.765 29.1357 208.078 29.9713C213.743 31.3469 220.015 27.3336 217.698 23.8153C216.018 21.199 213.98 21.0707 213.31 23.3558C212.525 26.1416 209.311 25.7029 208.921 22.8018C208.528 20.0089 211.455 17.4474 214.778 17.4897C218.528 17.5375 222.657 21.7837 222.61 25.4707C222.526 32.0553 212.08 35.7142 204.409 31.9269C200.573 29.9801 194.863 23.7213 193.515 20.0106Z" fill="#96C361"/>
<path d="M221.185 -30.817C220.319 -30.3319 220.416 -29.6337 221.472 -28.5197C225.176 -24.3872 226.604 -10.3983 224.036 -2.34704L222.919 1.12944L225.095 -1.33142C226.187 -2.7193 227.721 -5.39311 228.282 -7.28193C229.732 -11.7504 229.178 -18.9456 227.086 -22.7622C226.142 -24.4714 225.413 -26.2782 225.419 -26.7743C225.337 -28.6713 222.37 -31.5009 221.185 -30.817Z" fill="#96C361"/>
<path d="M169.45 -26.4864L168.429 -22.0105C167.855 -19.3264 167.816 -16.2359 168.539 -13.8287C169.868 -8.9271 170.94 -8.91344 170.146 -13.8082C169.849 -15.8084 169.573 -19.5073 169.501 -21.9969L169.45 -26.4864ZM171.661 -6.50623C171.333 -6.11271 172.6 -4.49593 174.512 -2.87683C177.902 0.0585565 181.107 0.997175 181.131 -0.900456C181.139 -1.49691 180.397 -1.9021 179.539 -1.91303C178.573 -1.92534 176.658 -3.15268 175.07 -4.56683C173.585 -5.98165 172.094 -6.80195 171.661 -6.50623ZM174.08 -36.7066C175.282 -38.3884 176.374 -39.8708 176.697 -39.8667C176.913 -39.864 179.791 -38.7287 182.992 -37.292C189.6 -34.3196 200.721 -31.7779 208.862 -31.3769C213.469 -31.1174 214.642 -30.6043 217.711 -27.4722C222.152 -22.7239 224.833 -14.1097 223.171 -9.84276C222.507 -8.35493 222.195 -8.85702 221.592 -12.255C220.305 -20.755 209.247 -27.7769 197.233 -27.7331C186.944 -27.7618 181.424 -23.8413 181.328 -16.3591C181.28 -12.5677 184.311 -6.24664 186.972 -4.61405C189.203 -3.19171 195.642 -3.71016 199.098 -5.56014C203.742 -8.19038 204.746 -11.373 201.671 -13.8122C200.396 -14.8167 198.691 -15.6417 197.939 -15.6513C195.905 -15.6772 194.047 -13.2044 194.777 -11.2992C195.707 -8.7948 192.159 -8.14107 189.83 -10.366C187.924 -12.1838 187.309 -14.3849 187.675 -17.9753C187.81 -20.0704 193.096 -22.6984 196.737 -22.652C201.46 -22.5918 210.101 -19.2863 212.96 -16.4562C222.596 -6.85749 210.865 4.76857 191.781 4.62782C181.383 4.49535 176.903 2.94196 171.61 -2.51215C162.824 -11.6098 162.021 -23.9901 169.184 -39.2615C171.061 -43.2304 172.135 -43.7148 174.037 -41.4953C174.991 -40.4909 174.873 -39.8899 173.573 -38.9083C172.709 -38.2184 171.938 -36.7339 171.923 -35.5371C171.9 -33.7398 172.225 -33.9365 174.08 -36.7066Z" fill="#96C361"/>
<path d="M167.235 -46.4735C165.434 -47.7919 163.409 -48.9163 162.765 -49.0229C160.516 -49.0516 155.163 -41.4355 152.61 -34.587C148.946 -24.8565 149.559 -13.973 154.164 -5.03295C157.719 1.99574 161.749 5.73861 170.27 10.0368C174.53 12.1898 176.565 12.5131 187.391 12.651C206.582 12.8955 216.711 9.03175 221.116 -0.391982C223.652 -5.54555 223.366 -8.64417 220.946 -3.68208C218.529 0.976856 211.817 5.8764 205.794 7.39835C180.838 13.7665 161.701 1.15262 161.774 -21.5981C161.761 -28.8849 164.992 -38.6189 168.581 -42.2667C170.208 -43.9372 170.103 -44.2437 167.235 -46.4735Z" fill="#96C361"/>
<path d="M171.692 16.2408C170.607 17.2251 176.796 27.8824 181.452 32.9307C186.53 38.4805 194.609 43.7772 199.319 44.6346L202.526 45.272L199.213 44.1273C190.461 41.1275 178.814 29.5029 176.453 21.2904C175.326 17.1888 173.105 14.8648 171.692 16.2408Z" fill="#96C361"/>
<path d="M164.68 44.7903C163.82 44.7794 171.759 52.9625 174.628 55.0939C176.326 56.3106 174.85 54.4942 171.354 51.0594C167.86 47.6206 164.895 44.793 164.68 44.7903Z" fill="#96C361"/>
<path d="M153.88 17.2119C153.98 9.33 153.98 9.33 152.848 14.0092C152.059 17.2891 152.026 19.8855 152.747 21.9895C153.57 24.6894 153.794 23.9953 153.88 17.2119Z" fill="#96C361"/>
<path d="M149.057 8.6716C149.488 8.6771 149.924 7.98175 149.934 7.18451C149.944 6.38923 149.527 5.68695 149.096 5.68145C148.558 5.67461 148.125 6.36605 148.115 7.16132C148.104 7.95856 148.52 8.66476 149.057 8.6716Z" fill="#96C361"/>
<path d="M147.741 10.851C147.756 9.65026 145.738 8.23259 144.981 8.91795C144.76 9.11595 145.183 9.92068 146.136 10.6298C147.092 11.4374 147.733 11.4455 147.741 10.851Z" fill="#96C361"/>
<path d="M133.145 28.9198C136.91 28.072 140.032 26.9127 140.038 26.4147C140.045 25.9167 140.585 25.5239 141.337 25.5335C141.982 25.5417 143.49 24.8639 144.573 23.8776C147.501 21.4243 146.004 21.104 142.01 23.3488C135.311 27.0534 126.607 28.6396 116.54 27.9089C111.503 27.5475 106.15 26.9831 104.654 26.5585C102.301 26.0363 102.3 26.1308 105.175 27.6677C109.968 30.3217 124.432 31.006 133.145 28.9198Z" fill="#96C361"/>
<path d="M142.895 12.5837C143.212 13.0839 144.065 13.5968 144.598 13.6036C145.239 13.6117 145.356 13.1112 145.04 12.611C144.725 12.0124 143.874 11.5999 143.337 11.5931C142.693 11.5849 142.58 11.9851 142.895 12.5837Z" fill="#96C361"/>
<path d="M142.481 3.20051C143.143 1.70871 142.835 0.708568 141.665 -0.105683C140.286 -1.21791 139.528 -0.72946 137.011 3.42813C132.853 9.95888 125.504 14.553 116.261 16.2328C111.748 17.075 111.748 17.075 117.325 16.7464C126.123 16.258 140.052 8.6547 142.481 3.20051Z" fill="#96C361"/>
<path d="M141.473 14.7563C140.736 13.7546 139.232 14.1312 134.591 16.3657C123.159 21.7091 111.05 21.0548 102.127 14.4617C98.1963 11.61 97.3401 11.3038 96.1473 12.5841C95.0619 13.7653 95.5855 14.6737 99.0844 17.9097C107.455 25.5018 122.992 26.2983 137.226 19.892C142.511 17.4668 142.84 16.9729 141.473 14.7563Z" fill="#96C361"/>
<path d="M133.911 2.39378C133.917 1.89181 133.494 1.48477 132.85 1.47657C132.313 1.46973 131.773 2.16572 131.762 3.06336C131.752 3.86257 132.277 4.265 132.819 3.97263C133.466 3.68358 133.903 2.99023 133.911 2.39378Z" fill="#96C361"/>
<path d="M131.088 5.24878C130.666 4.64489 130.025 4.63673 129.267 5.32402C127.855 6.60152 128.911 7.91243 130.531 6.93684C131.176 6.64383 131.407 5.84743 131.088 5.24878Z" fill="#96C361"/>
<path d="M102.397 10.1706C110.083 12.9618 120.087 10.3959 126.491 4.09463C130.727 -0.141468 130.408 -0.249883 125.323 3.47531C120.449 7.1087 111.859 8.2967 105.879 6.22611C103.316 5.39215 102.029 5.37576 101.055 6.16465C98.7826 7.83086 99.1997 8.93674 102.397 10.1706Z" fill="#96C361"/>
<path d="M105.022 -2.36808C104.984 0.624034 114.612 2.34341 120.535 0.324045C122.043 -0.15486 124.53 -1.8203 125.943 -3.19819C129.855 -7.03874 129.338 -8.84482 125.326 -5.49972C121.319 -2.16047 115.836 -1.02934 110.389 -2.69939C105.259 -4.16259 105.045 -4.16532 105.022 -2.36808Z" fill="#96C361"/>
<path d="M118.019 12.8627C118.443 13.2697 120.16 12.9923 121.991 12.3167C123.715 11.6398 124.908 10.6588 124.592 10.1547C124.278 9.6545 123.203 9.83572 122.121 10.7178C121.038 11.6057 119.528 12.2854 118.776 12.2758C118.026 12.2662 117.702 12.5614 118.019 12.8627Z" fill="#96C361"/>
<path d="M103.355 2.20024C102.922 2.69677 103.981 3.60607 105.691 4.22638C111.667 6.39734 115.203 6.5428 120.375 4.51386C126.519 1.99723 126.854 1.00332 120.934 2.82583C115.336 4.64654 112.225 4.60691 107.64 2.75688C105.399 1.83054 103.686 1.6079 103.355 2.20024Z" fill="#96C361"/>
<path d="M98.7958 23.1981C98.4736 23.4874 99.0031 24.0966 100.067 24.4094C101.565 25.027 101.673 24.9279 100.719 23.9176C99.9785 23.2132 99.1224 22.901 98.7958 23.1981Z" fill="#96C361"/>
<path d="M77.063 20.8239C87.5407 14.8678 95.6927 6.09624 99.2372 -2.73994C101.008 -7.21023 101.355 -17.4791 99.7594 -18.3933C98.1606 -19.4177 97.8323 -18.8214 97.5619 -14.4344C97.0467 -7.66036 85.0129 11.2504 76.451 18.5185C69.7278 24.3196 69.8284 24.9214 77.063 20.8239Z" fill="#96C361"/>
<path d="M54.0914 14.4427C55.0317 16.6499 56.5079 18.4623 57.3658 18.4733C61.1156 18.521 75.3642 11.1266 80.7846 6.40351C87.7294 0.211459 89.919 -3.46006 90.6453 -10.133C90.8975 -12.9215 91.4635 -15.5073 91.7901 -15.8043C92.5528 -16.4955 92.4483 -16.7941 91.3827 -17.5047C90.8536 -17.8107 89.7601 -16.3303 88.9873 -14.3437C87.2039 -9.38141 80.4556 -1.28104 74.9359 2.73985C69.7428 6.46366 59.505 10.4225 55.3228 10.4716L52.5348 10.436L54.0914 14.4427Z" fill="#96C361"/>
<path d="M69.3291 22.0215C71.2711 20.9516 74.9551 17.998 77.5607 15.3438C84.1879 8.7441 83.8703 8.33841 75.8709 13.6252C71.7606 16.3665 68.937 19.1263 67.0784 21.9928C65.877 23.7751 65.9811 23.7764 69.3291 22.0215Z" fill="#96C361"/>
<path d="M71.3286 -8.78449C69.8071 -7.20716 67.0917 -4.4421 65.3566 -2.76905C61.5589 0.771725 61.1135 2.0635 64.239 0.603083C68.233 -1.33848 73.9913 -7.25033 74.0206 -9.54953C73.9411 -11.6434 73.8315 -11.5444 71.3286 -8.78449ZM36.0327 -32.2772C38.77 -36.934 45.2635 -41.541 49.1216 -41.4919C50.0856 -41.4796 52.5322 -39.6529 54.6458 -37.5291C56.6563 -35.3142 61.6454 -31.3524 65.7954 -28.7085L73.13 -23.8289L73.0627 -18.5435C72.98 -12.0494 74.6914 -11.5334 75.8417 -17.8032C76.541 -22.1848 76.6484 -22.2838 78.5557 -20.464C81.6261 -17.4323 81.7995 -14.0358 78.8396 -9.08257C75.5503 -3.43655 71.0031 0.0946727 62.5931 3.7775C54.939 6.96989 49.6806 7.30847 48.2172 4.49017C47.2714 2.88338 47.5979 2.59025 50.1757 2.12104C56.4081 1.00537 63.2624 -6.58767 63.3375 -12.4774C63.3514 -13.5739 61.7737 -16.0865 59.7594 -18.0081C56.7947 -20.8416 55.3012 -21.4592 51.7637 -21.5042C42.1173 -21.6271 38.242 -11.9978 46.2306 -8.10408C51.348 -5.54833 55.2493 -8.8909 50.4585 -11.7398C47.9083 -13.2725 47.7138 -15.1729 50.083 -15.9381C52.7775 -16.9 56.9202 -13.8527 56.8846 -11.0614C56.8351 -7.16963 50.985 -2.55838 46.269 -2.61846C44.1245 -2.64578 41.7704 -3.06954 41.1343 -3.47928C40.3877 -3.88452 40.002 -7.28565 40.1662 -11.674C40.2476 -18.0598 39.8394 -19.8586 37.324 -24.2851C34.597 -29.106 34.4951 -29.6094 36.0327 -32.2772Z" fill="#96C361"/>
<path d="M75.2965 -0.152581C78.0033 -2.41374 78.7651 -3.19747 77.9072 -3.2084C77.6928 -3.21113 76.3908 -2.03264 74.8727 -0.557651L72.2657 2.20486L75.2965 -0.152581Z" fill="#96C361"/>
<path d="M67.4088 4.24068C67.4063 4.4395 68.377 4.25301 69.561 3.66761C70.7492 3.08619 71.7243 2.39772 71.728 2.10244C71.7306 1.89772 70.7619 2.09013 69.5737 2.67155C68.3898 3.25498 67.4126 3.94147 67.4088 4.24068Z" fill="#96C361"/>
<path d="M58.765 26.474C59.7311 26.4863 62.2205 24.626 64.393 22.4585C68.7419 17.8222 69.1797 17.1308 66.4801 18.4962C62.921 20.146 56.9432 26.4508 58.765 26.474Z" fill="#96C361"/>
<path d="M59.0336 22.2913C59.9004 21.6014 60.3395 20.8116 60.2337 20.6095C59.5988 20.1033 57.5392 21.5714 57.5266 22.5674C57.5202 23.0654 58.1649 22.9732 59.0336 22.2913Z" fill="#96C361"/>
<path d="M51.6196 31.8737C48.962 29.9459 47.7835 29.9309 47.7594 31.8246C47.7466 32.8246 48.8147 33.3343 50.7427 33.3589C53.5298 33.294 53.5298 33.294 51.6196 31.8737Z" fill="#96C361"/>
<path d="M50.6942 28.7689C52.6145 29.3919 52.8294 29.1938 52.4255 27.397C51.9133 25.5891 47.4385 23.4392 46.2438 24.5265C45.3759 25.3109 48.2323 28.143 50.6942 28.7689Z" fill="#96C361"/>
<path d="M49.8583 35.3454C47.9451 34.3248 47.726 34.5169 47.6904 37.3102C47.665 39.3063 48.1874 40.3111 49.2597 40.3248C51.1898 40.3494 51.3099 39.2543 49.6193 37.4352C48.4548 36.3218 48.5635 36.1263 50.1645 36.6448C52.6204 37.5719 52.5236 36.6748 49.8583 35.3454Z" fill="#96C361"/>
<path d="M43.0217 16.698C45.118 20.5167 46.5955 22.2306 48.5205 22.6529C50.1275 22.8722 51.094 22.6857 51.1042 21.8884C51.1359 19.3983 48.6336 13.7809 46.5195 11.3559C45.2528 9.93796 43.5654 7.52632 42.7288 6.01739C40.3212 1.29699 29.6057 -7.41963 21.6116 -11.215C11.2745 -16.1309 1.53806 -17.8536 -7.48994 -16.1731C-12.9737 -15.1463 -14.4838 -14.4666 -14.7164 -12.8729C-15.0612 -10.9793 -14.4212 -10.8727 -5.62845 -10.7607C1.44655 -10.6706 5.61977 -10.0169 10.9575 -8.25573C24.6248 -3.69114 37.5754 6.45379 43.0217 16.698Z" fill="#96C361"/>
<path d="M47.6079 43.7929C48.2474 44.1062 48.6814 43.7081 48.6916 42.9129C48.703 42.0152 48.283 41.3109 47.6396 41.3027C47.1045 41.2959 46.5601 41.6867 46.5538 42.1828C46.5461 42.7851 47.0766 43.4908 47.6079 43.7929Z" fill="#96C361"/>
<path d="M30.5402 11.5535C35.1965 16.3006 36.8969 17.5134 35.5319 15.3047C34.4825 13.4997 30.885 9.65798 27.6009 6.72789C20.4943 0.449352 13.1432 -3.13895 6.50473 -3.82008L1.5781 -4.18013L7.34946 -2.61424C16.5342 -0.0972411 23.0255 3.97231 30.5402 11.5535ZM-20.8622 -1.5758C-17.416 -3.03016 -13.6551 -3.68118 -9.36937 -3.52617C-2.07907 -3.33288 -1.08709 -5.51745 -8.26193 -6.105C-12.87 -6.46296 -23.6293 -3.40858 -25.8044 -1.04221C-27.5477 0.933934 -27.0092 0.844322 -20.8622 -1.5758ZM12.9833 85.2629C20.0124 72.2795 22.5088 61.0339 20.9333 50.3428C19.5478 41.2411 16.6203 35.319 10.8026 29.0588C2.55227 20.3716 -8.44342 16.6424 -26.8847 16.4074C-38.4612 16.26 -38.8774 15.2545 -28.8583 11.2968C-24.5442 9.55428 -21.2147 9.09268 -14.6769 9.17597C-7.2779 9.17179 -5.13759 9.70111 0.829986 12.3681C4.66864 14.1122 9.98594 17.4796 12.8509 19.8039C15.6084 22.2351 17.8413 23.6594 17.8476 23.1634C17.8718 21.2677 6.61946 12.3454 0.759403 9.57345C-2.54675 8.03896 -8.31128 6.27037 -12.2708 5.51509C-20.5065 4.01624 -27.8121 5.02177 -36.3296 8.80167C-39.1362 10.0653 -41.612 11.03 -41.8239 10.8265C-42.7751 9.81422 -28.4651 -2.57044 -23.3954 -5.10075C-18.1058 -7.72671 -16.9248 -7.91051 -6.4185 -7.77666C6.55178 -7.51298 12.7461 -5.6385 23.8081 1.38541C34.4424 8.30741 44.7695 22.5101 44.5672 29.8906C44.4386 31.4857 44.2276 31.3787 42.8613 29.2684L41.2836 26.7558L41.7827 29.7508C42.7787 35.7507 42.8213 40.7402 41.7469 40.7265C41.214 40.7197 40.3853 38.4155 39.9933 35.5143C38.8116 27.4193 34.5094 19.8849 27.4049 13.6103C24.0139 10.5706 20.6143 8.03083 19.971 8.02264C19.3276 8.01444 20.8119 9.52965 23.1429 11.2584C29.3067 16.0247 34.789 23.2788 37.1724 29.8948C39.2378 35.804 39.7363 47.1881 37.9145 47.1649C37.3815 47.1581 36.8727 44.7536 36.9108 41.7674C36.9489 38.7714 36.5543 36.075 36.0231 35.763C35.4931 35.3605 35.2561 36.9562 35.5484 39.3501L35.9227 43.6429L33.4 39.6239C29.9299 34.2895 25.28 29.0444 23.9932 29.028C23.456 29.0212 24.6099 31.1287 26.7214 33.7525C33.578 42.3215 36.697 50.0436 37.2264 59.3333C37.8337 70.5101 35.0705 76.8618 27.396 81.6526C24.5873 83.4144 21.7803 84.8749 21.2431 84.868C20.8142 84.8626 21.4902 82.4732 22.9179 79.5972C26.8823 71.4673 28.3663 64.5067 27.8212 56.6146C26.9133 44.0302 25.6193 44.4154 25.4554 57.2815C25.3092 68.7558 25.0799 69.7511 22.1193 75.1001C20.3664 78.1708 17.528 81.9266 15.6858 83.4998C13.9532 84.9721 12.6563 85.7549 12.9833 85.2629Z" fill="#96C361"/>
<path d="M40.0821 45.2965C40.0682 46.393 40.5935 46.9962 41.1366 46.7078C41.786 46.4149 42.228 45.2235 42.242 44.127C42.256 43.0286 41.8368 42.4267 41.1875 42.7157C40.6443 43.0081 40.0961 44.1981 40.0821 45.2965Z" fill="#96C361"/>
<path d="M-73.1216 9.83087L-72.5227 13.3332L-71.6089 8.95236C-70.2442 2.68331 -62.0192 -11.4799 -55.3853 -18.7785C-41.466 -34.1647 -21.9827 -40.2009 -1.13085 -35.6491C12.9822 -32.5712 22.9796 -26.1614 27.9039 -17.1189C28.5308 -15.8154 29.5903 -14.7978 30.1254 -14.791C31.5204 -14.7732 31.4427 -17.1722 29.8067 -23.2787C25.712 -38.5971 -0.438582 -47.8135 -26.5569 -43.0588C-35.5849 -41.3724 -48.1953 -36.0499 -53.9393 -31.4294C-65.6352 -22.2029 -75.0066 -2.06709 -73.1216 9.83087Z" fill="#96C361"/>
<path d="M-41.2701 26.2035C-40.6289 26.2116 -40.0832 25.7185 -40.0768 25.2146C-40.0691 24.6161 -40.2786 24.2177 -40.493 24.215C-40.8158 24.2109 -41.358 24.5997 -41.6863 25.1941C-42.0154 25.6939 -41.8052 26.1966 -41.2701 26.2035ZM8.3643 77.4206C10.992 72.8628 11.3385 71.1721 11.3285 63.7869C11.2818 50.1168 5.5344 38.6698 -4.47012 32.6536C-9.57775 29.4974 -16.846 27.9085 -21.3624 28.8492C-25.7695 29.8857 -24.3956 31.4015 -18.928 31.4712C-8.7436 31.7013 0.707594 38.8091 4.22503 48.9303C6.2921 55.0423 5.52771 56.0307 2.48268 51.0029C-1.82198 43.6635 -14.2829 36.921 -22.2216 37.6172L-25.7684 37.9717L-22.5596 38.8119C-20.7429 39.2347 -17.2176 40.075 -14.5435 40.7076C-8.98537 42.1763 -2.51151 47.4446 0.423519 52.7723C3.56328 58.699 2.78831 60.6855 -0.684331 55.5499C-4.79193 49.412 -9.03241 45.8692 -14.4771 44.0023C-20.3495 42.0315 -24.8531 41.9742 -30.6655 43.7961C-36.5863 45.6186 -40.4478 45.6678 -39.6698 43.7778C-39.3412 42.9886 -37.6081 41.8117 -35.8848 41.2331C-31.7919 39.6925 -32.8451 38.1808 -37.2557 39.3236C-41.1265 40.2705 -40.8093 40.373 -41.7343 37.469C-42.3548 35.6656 -41.8108 34.9736 -39.2229 33.7091C-37.3888 32.9351 -35.8724 31.7574 -35.866 31.2554C-35.8469 29.7574 -39.2821 30.0168 -41.6606 31.6836C-43.499 32.9576 -43.9253 32.7475 -46.0331 29.8304L-48.3535 26.6074L-45.2072 23.8537C-43.4713 22.2811 -41.3161 21.3084 -40.5704 21.6191C-39.7163 21.9293 -38.9587 21.6397 -38.6313 20.9429C-38.4046 20.1484 -34.5392 19.798 -25.963 19.9073C-12.4585 20.0793 -6.47367 21.5554 2.1481 26.7566C13.0008 33.3782 18.9097 49.3162 15.7259 63.3468C13.9159 70.8998 10.813 78.7454 9.5284 78.729C8.98907 78.7221 8.55128 79.4135 8.54112 80.2107C8.53091 81.0119 7.9869 81.7059 7.34353 81.6977C6.80845 81.6909 6.58759 82.1901 7.00768 82.8885C7.42767 83.5947 7.31812 83.6918 6.57372 83.2787C5.72218 82.7737 6.28229 80.9833 8.3643 77.4206Z" fill="#96C361"/>
<path d="M-13.5937 -17.0473C-6.59565 -19.2538 -4.5547 -19.4267 4.98041 -18.9055L15.6949 -18.2709L9.82247 -20.2417C2.13584 -22.8322 -9.64575 -23.884 -16.9543 -22.4808C-26.6248 -20.706 -35.6909 -16.0334 -42.857 -9.14127C-50.0222 -2.14875 -56.4875 8.74702 -55.4631 12.3532C-55.0511 13.8527 -55.1632 14.1486 -55.7909 13.2448C-56.5307 12.1348 -56.856 12.3354 -57.4114 13.9211C-58.5299 17.6988 -55.6154 16.1412 -52.3359 11.0936C-47.9637 4.46514 -34.8362 -7.44041 -27.4981 -11.3357C-24.2562 -13.0939 -18.0047 -15.7076 -13.5937 -17.0473Z" fill="#96C361"/>
<path d="M-41.3115 -20.8928C-44.1261 -18.8319 -48.354 -15.1942 -50.7456 -12.8326C-55.7388 -7.80678 -61.5627 3.09125 -61.7275 7.68634C-61.8565 9.47632 -62.1983 10.9702 -62.6293 10.9647C-63.1623 10.958 -63.4968 12.0464 -63.5147 13.448C-63.5325 14.8436 -63.0114 15.9489 -62.368 15.9571C-61.7267 15.9652 -62.0583 16.656 -62.9255 17.5427C-65.0913 19.5115 -65.0963 19.9111 -62.7437 19.9411C-61.3465 19.9589 -60.5813 18.5728 -59.5682 14.8941C-55.516 -0.119645 -42.1258 -15.8158 -28.3285 -21.6252C-16.257 -26.6612 -4.34751 -27.3108 10.9372 -23.519C12.5417 -23.1009 11.3772 -24.2124 7.75724 -26.4537C1.48346 -30.424 1.38156 -30.9274 7.46327 -28.5503C9.59769 -27.7257 11.5194 -27.2051 11.7364 -27.4012C12.0638 -27.5979 9.39516 -28.8309 5.98245 -30.1698C-3.1952 -33.5786 -20.5545 -34.3943 -30.4542 -31.6322C-46.6977 -27.3483 -60.3844 -13.5539 -67.8156 5.81124C-70.4755 12.5599 -69.8418 13.6646 -67.19 7.21511C-61.5521 -6.08134 -44.5883 -24.7245 -38.0506 -24.6412C-36.6555 -24.6235 -37.5273 -23.5399 -41.3115 -20.8928Z" fill="#96C361"/>
<path d="M-60.9445 89.306C-58.7716 86.9436 -53.7894 83.1107 -49.9042 80.8666C-43.3105 77.0622 -41.3593 75.0926 -43.9306 75.0598C-48.0032 75.008 -59.4787 83.434 -63.5184 89.4701C-66.905 94.4199 -65.5109 94.3392 -60.9445 89.306ZM-12.973 102.689C-14.2636 102.972 -14.1578 103.174 -12.4455 103.29C-9.33605 103.428 -3.93796 108.789 -3.12933 112.495C-2.71855 114.091 -1.98474 115.502 -1.44754 115.509C-0.269077 115.524 -0.982626 112.522 -3.17998 108.303C-4.85623 105.186 -10.2857 102.127 -12.973 102.689ZM-2.22773 126.074C-3.09616 127.061 -3.75818 128.35 -3.76583 128.95C-3.77212 129.444 -3.12156 129.055 -2.25309 128.064C-1.37919 126.98 -0.615267 125.694 -0.607643 125.096C-0.601273 124.596 -1.35383 124.99 -2.22773 126.074ZM-51.2201 100.308C-53.9222 101.868 -58.2169 102.412 -58.2004 101.115C-58.1953 100.715 -56.3481 98.746 -54.1767 96.6729C-48.8622 91.7576 -51.7575 91.8152 -58.254 96.8218C-61.7176 99.4769 -64.4137 100.736 -66.6666 100.707C-68.3823 100.686 -71.1745 101.15 -72.7882 101.628C-76.0203 102.785 -76.9754 102.072 -78.0992 97.768C-79.3322 93.3658 -62.3025 78.2141 -49.8 72.6855C-34.2654 65.6992 -7.31106 70.8347 -0.0599542 82.106C1.09786 83.9084 2.04234 85.6196 2.0385 85.9207C2.03471 86.218 0.00604886 85.5936 -2.44857 84.5642C-9.80819 81.4778 -19.5476 80.1547 -26.3181 81.1671C-34.6968 82.5566 -43.5433 86.8324 -41.6361 88.6582C-41.3172 88.9595 -39.9213 88.5776 -38.516 87.7942C-34.9506 85.6444 -25.0559 83.2799 -20.3378 83.34C-11.2265 83.4561 3.59299 89.9254 6.31738 94.9511L7.57611 97.1663L5.03275 94.9347C3.65506 93.7221 -0.389615 91.4793 -3.91092 89.8298C-9.24316 87.4682 -11.7012 87.0373 -19.4183 86.8425C-27.1367 86.7441 -29.4987 87.1137 -34.6791 89.3394C-42.2216 92.4427 -43.0951 93.8274 -35.7653 90.9203C-30.1624 88.702 -15.1376 87.3931 -15.1605 89.1904C-15.1668 89.6864 -12.8205 90.7165 -10.0414 91.4508C-3.84213 92.9316 4.66255 98.8224 7.38744 103.641C10.0073 108.368 9.67591 117.545 6.69071 124.49C4.48174 129.851 -5.41104 140.401 -8.09283 140.367C-9.163 140.354 -9.67393 138.451 -9.21278 135.76C-9.20774 135.364 -9.73523 134.761 -10.4805 134.251C-11.6513 133.636 -11.4279 132.938 -9.58112 131.166C-2.73994 124.272 -3.15727 114.688 -10.4868 109.407C-16.4353 105.242 -28.3226 103.99 -36.8261 106.675C-41.5624 108.209 -41.7799 108.108 -46.8883 105.348C-51.3614 102.893 -51.8923 102.392 -50.268 101.416C-47.4579 99.5523 -48.1948 98.5467 -51.2201 100.308Z" fill="#96C361"/>
<path d="M5.77985 69.9031C6.09367 70.608 6.3124 70.1087 6.33023 68.7091C6.34799 67.3154 6.14197 66.8167 5.81157 67.4129C5.58824 68.1071 5.57302 69.3019 5.77985 69.9031Z" fill="#96C361"/>
</svg>
