<svg width="37" height="37" viewBox="0 0 37 37" fill="none" xmlns="http://www.w3.org/2000/svg">
<path d="M26.1728 10.8666C26.1728 10.8666 27.8842 10.1993 27.7416 11.8199C27.694 12.4872 27.2662 14.8229 26.9334 17.3491L25.7925 24.8327C25.7925 24.8327 25.6974 25.929 24.8417 26.1197C23.986 26.3104 22.7025 25.4524 22.4648 25.2617C22.2746 25.1187 18.8994 22.9737 17.711 21.9251C17.3782 21.6391 16.9978 21.0671 17.7585 20.3998L22.7501 15.6332C23.3205 15.0612 23.891 13.7265 21.514 15.3472L14.8587 19.8755C14.8587 19.8755 14.098 20.3521 12.6719 19.9231L9.58187 18.9698C9.58187 18.9698 8.44093 18.2548 10.39 17.5398C15.1439 15.2995 20.9911 13.0115 26.1728 10.8666Z" fill="#231F20"/>
</svg>
