<svg width="37" height="37" viewBox="0 0 37 37" fill="none" xmlns="http://www.w3.org/2000/svg">
<path d="M27.5185 14.4535C27.3431 13.0684 26.543 12.1996 25.1227 12.0713C23.4966 11.9244 19.9763 11.8398 18.3435 11.8398C15.0036 11.8398 13.5111 11.9214 11.9316 12.0849C10.4265 12.2404 9.76763 12.9093 9.50863 14.2901C9.32726 15.2576 9.25 16.1639 9.25 18.3057C9.25 20.2297 9.34087 21.4397 9.48147 22.4577C9.6748 23.8557 10.6344 24.6413 12.0408 24.7584C13.6769 24.8946 16.9544 24.9626 18.5749 24.9626C20.1408 24.9626 23.6647 24.881 25.2315 24.704C26.6338 24.5455 27.3007 23.7964 27.5185 22.4169C27.5185 22.4169 27.75 20.9058 27.75 18.2921C27.75 16.8039 27.6412 15.4198 27.5185 14.4535ZM16.5329 21.0013V15.6831L21.5968 18.315L16.5329 21.0013Z" fill="white"/>
</svg>
