<svg width="13" height="13" viewBox="0 0 13 13" fill="none" xmlns="http://www.w3.org/2000/svg">
<path d="M6.234 0.0369996C9.661 0.0369996 12.444 2.82 12.444 6.247C12.444 9.674 9.661 12.457 6.234 12.457C2.807 12.457 0.0240002 9.674 0.0240002 6.247C0.0240002 2.82 2.807 0.0369996 6.234 0.0369996ZM6.234 11.56C9.155 11.56 11.524 9.191 11.524 6.247C11.524 3.303 9.155 0.933999 6.234 0.933999C3.313 0.933999 0.944 3.303 0.944 6.247C0.944 9.191 3.313 11.56 6.234 11.56ZM6.257 4.016C5.061 4.016 4.118 4.936 4.118 6.247C4.118 7.535 5.061 8.455 6.257 8.455C7.108 8.455 7.844 7.972 8.143 7.19H9.293C8.925 8.593 7.683 9.49 6.257 9.49C4.44 9.49 3.037 8.11 3.037 6.247C3.037 4.361 4.44 2.981 6.257 2.981C7.683 2.981 8.925 3.878 9.293 5.281H8.143C7.844 4.499 7.108 4.016 6.257 4.016Z" fill="#96C361"/>
</svg>
