<svg width="19" height="17" viewBox="0 0 19 17" fill="none" xmlns="http://www.w3.org/2000/svg">
<path d="M17.1728 0.86656C17.1728 0.86656 18.8842 0.199266 18.7416 1.8199C18.694 2.48723 18.2662 4.82286 17.9334 7.34915L16.7925 14.8327C16.7925 14.8327 16.6974 15.929 15.8417 16.1197C14.986 16.3104 13.7025 15.4524 13.4648 15.2617C13.2746 15.1187 9.89943 12.9737 8.71095 11.9251C8.37817 11.6391 7.99785 11.0671 8.75846 10.3998L13.7501 5.6332C14.3205 5.06121 14.891 3.72655 12.514 5.34719L5.85866 9.87547C5.85866 9.87547 5.09801 10.3521 3.67188 9.92313L0.581866 8.96982C0.581866 8.96982 -0.559065 8.25483 1.39002 7.53981C6.14389 5.29949 11.9911 3.01152 17.1728 0.86656Z" fill="white"/>
</svg>
