<svg width="19" height="14" viewBox="0 0 19 14" fill="none" xmlns="http://www.w3.org/2000/svg">
<path d="M18.5185 3.45352C18.3431 2.06843 17.543 1.19963 16.1227 1.07132C14.4966 0.924388 10.9763 0.839844 9.34349 0.839844C6.00361 0.839844 4.51107 0.921429 2.93165 1.08489C1.42653 1.24041 0.76763 1.90925 0.50863 3.29006C0.327256 4.25764 0.25 5.16392 0.25 7.30574C0.25 9.22967 0.340872 10.4397 0.481472 11.4577C0.674797 12.8557 1.63443 13.6413 3.04076 13.7584C4.67686 13.8946 7.9544 13.9626 9.57492 13.9626C11.1408 13.9626 14.6647 13.881 16.2315 13.704C17.6338 13.5455 18.3007 12.7964 18.5185 11.4169C18.5185 11.4169 18.75 9.90581 18.75 7.29213C18.75 5.80391 18.6412 4.41982 18.5185 3.45352ZM7.53293 10.0013V4.68311L12.5968 7.31499L7.53293 10.0013Z" fill="white"/>
</svg>
